<svg width="202" height="51" viewBox="0 0 202 51" fill="none" xmlns="http://www.w3.org/2000/svg">
<path d="M30.1577 19.1826V29.8979L31.7471 30.2056V32H25.5742V30.2056L27.1636 29.8979V19.1826L25.5742 18.875V17.0703H31.7471V18.875L30.1577 19.1826ZM37.2842 29.8979L38.5762 30.2056V32H32.8545V30.2056L34.3003 29.8979V23.0176L32.7007 22.71V20.9053H37.0791L37.2021 22.3716C37.5576 21.8384 38.002 21.4282 38.5352 21.1411C39.0752 20.8472 39.6973 20.7002 40.4014 20.7002C41.1123 20.7002 41.7207 20.8574 42.2266 21.1719C42.7393 21.4863 43.1221 21.9614 43.375 22.5972C43.7168 22.0024 44.1611 21.5376 44.708 21.2026C45.2549 20.8677 45.8975 20.7002 46.6357 20.7002C47.7295 20.7002 48.5908 21.0728 49.2197 21.8179C49.8555 22.563 50.1733 23.6978 50.1733 25.2222V29.8979L51.6191 30.2056V32H45.8872V30.2056L47.1792 29.8979V25.2119C47.1792 24.3916 47.0425 23.8242 46.769 23.5098C46.5024 23.1885 46.1128 23.0278 45.6001 23.0278C45.1353 23.0278 44.7422 23.1611 44.4209 23.4277C44.0996 23.6875 43.8672 24.0327 43.7236 24.4634V29.8979L44.9336 30.2056V32H39.5298V30.2056L40.7397 29.8979V25.2119C40.7397 24.4121 40.603 23.8481 40.3296 23.52C40.063 23.1919 39.6665 23.0278 39.1401 23.0278C38.313 23.0278 37.6943 23.3594 37.2842 24.0225V29.8979ZM57.9253 32.2153C56.8315 32.2153 55.8916 31.9761 55.1055 31.4976C54.3193 31.019 53.7178 30.356 53.3008 29.5083C52.8838 28.6538 52.6753 27.6729 52.6753 26.5654V26.3501C52.6753 25.2358 52.8838 24.2583 53.3008 23.4175C53.7178 22.563 54.3159 21.8965 55.0952 21.418C55.8813 20.9395 56.8179 20.7002 57.9048 20.7002C59.0122 20.7002 59.9521 20.9395 60.7246 21.418C61.5039 21.8965 62.1021 22.563 62.519 23.4175C62.936 24.2651 63.1445 25.2427 63.1445 26.3501V26.5654C63.1445 27.6797 62.936 28.6572 62.519 29.498C62.1021 30.3457 61.5039 31.0122 60.7246 31.4976C59.9453 31.9761 59.0122 32.2153 57.9253 32.2153ZM57.9253 29.9185C58.438 29.9185 58.8618 29.7783 59.1968 29.498C59.5249 29.2178 59.7676 28.8281 59.9248 28.3291C60.082 27.8232 60.1606 27.2354 60.1606 26.5654V26.3501C60.1606 25.7007 60.082 25.1196 59.9248 24.6069C59.7676 24.1011 59.5215 23.708 59.1865 23.4277C58.8584 23.1475 58.4312 23.0073 57.9048 23.0073C57.3989 23.0073 56.9751 23.1475 56.6333 23.4277C56.2983 23.7148 56.0522 24.1113 55.895 24.6172C55.7446 25.1162 55.6694 25.6938 55.6694 26.3501V26.5654C55.6694 27.2285 55.748 27.8164 55.9053 28.3291C56.0625 28.835 56.3052 29.228 56.6333 29.5083C56.9683 29.7817 57.3989 29.9185 57.9253 29.9185ZM76.4028 20.9053V22.71L75.1724 22.915L71.6655 32H68.6201L65.2671 22.8945L64.0674 22.71V20.9053H69.4507V22.6997L68.2817 22.9048L69.9531 27.9395L70.2095 28.8008H70.271L70.5581 27.9395L72.3936 22.915L71.0298 22.6997V20.9053H76.4028ZM82.5962 32.2153C81.5366 32.2153 80.6104 31.9795 79.8174 31.5078C79.0244 31.043 78.4092 30.4004 77.9717 29.5801C77.541 28.7598 77.3257 27.8232 77.3257 26.7705V26.3604C77.3257 25.2598 77.5308 24.2856 77.9409 23.438C78.3511 22.5835 78.9321 21.9102 79.6841 21.418C80.4087 20.9395 81.2769 20.7002 82.2886 20.7002H82.3296C83.3345 20.7002 84.1787 20.8984 84.8623 21.2949C86.2568 22.1016 86.9541 23.5747 86.9541 25.7144V27.3447H80.4326L80.4121 27.4062C80.4531 27.8848 80.5762 28.3154 80.7812 28.6982C80.9795 29.0742 81.2632 29.3716 81.6323 29.5903C82.0015 29.8091 82.4492 29.9185 82.9756 29.9185C83.5225 29.9185 84.0317 29.8501 84.5034 29.7134C84.9819 29.5698 85.4468 29.3613 85.8979 29.0879L86.708 30.9336C86.25 31.3027 85.6724 31.6104 84.9751 31.8564C84.2847 32.0957 83.4917 32.2153 82.5962 32.2153ZM80.4224 25.3145L80.4531 25.3657H84.1548V25.0991C84.1548 24.6548 84.0967 24.2651 83.9805 23.9302C83.7207 23.2534 83.1875 22.915 82.3809 22.915C81.9912 22.915 81.6562 23.0176 81.376 23.2227C81.1025 23.4346 80.8872 23.7217 80.73 24.084C80.5796 24.4463 80.4771 24.8564 80.4224 25.3145ZM89.5894 18.5571V16.0039H92.686V18.5571H89.5894ZM92.686 20.9053V29.8979L94.1216 30.2056V32H88.2461V30.2056L89.6919 29.8979V23.0176L88.0923 22.71V20.9053H92.686ZM99.8843 32.2153C99.0571 32.2153 98.2847 32.1367 97.5669 31.9795C96.856 31.8223 96.1724 31.5967 95.5161 31.3027L95.4854 28.165H97.5669L97.9668 29.7646C98.1992 29.8809 98.4521 29.9731 98.7256 30.0415C99.0059 30.1099 99.3237 30.144 99.6792 30.144C100.349 30.144 100.821 30.0347 101.094 29.8159C101.368 29.5972 101.504 29.3237 101.504 28.9956C101.504 28.6812 101.361 28.4077 101.074 28.1753C100.773 27.936 100.192 27.731 99.3306 27.5601C98.0181 27.2866 97.0508 26.8628 96.4287 26.2886C95.8066 25.7144 95.4956 24.9795 95.4956 24.084C95.4956 23.4619 95.6528 22.9014 95.9673 22.4023C96.2749 21.8965 96.7466 21.4897 97.3823 21.1821C98.0249 20.8745 98.8452 20.7207 99.8433 20.7207C100.677 20.7207 101.439 20.8027 102.13 20.9668C102.827 21.124 103.412 21.3325 103.883 21.5923L103.914 24.6274H101.843L101.525 23.1714C101.163 22.8979 100.664 22.7612 100.028 22.7612C99.5015 22.7612 99.0981 22.8672 98.8179 23.0791C98.5376 23.291 98.3975 23.5645 98.3975 23.8994C98.3975 24.0908 98.4487 24.2686 98.5513 24.4326C98.6606 24.6172 98.8828 24.7812 99.2178 24.9248C99.5596 25.0684 99.9595 25.1948 100.417 25.3042C101.792 25.6187 102.793 26.0391 103.422 26.5654C104.051 27.085 104.365 27.8164 104.365 28.7598C104.365 29.792 103.989 30.626 103.237 31.2617C102.492 31.8975 101.375 32.2153 99.8843 32.2153ZM110.241 25.7964V29.8979L111.84 30.2056V32H105.657V30.2056L107.247 29.8979V19.1826L105.657 18.875V17.0703H111.84V18.875L110.241 19.1826V23.4893H116.332V19.1826L114.732 18.875V17.0703H120.915V18.875L119.315 19.1826V29.8979L120.915 30.2056V32H114.732V30.2056L116.332 29.8979V25.7964H110.241ZM127.447 32.2153C126.387 32.2153 125.461 31.9795 124.668 31.5078C123.875 31.043 123.26 30.4004 122.822 29.5801C122.392 28.7598 122.176 27.8232 122.176 26.7705V26.3604C122.176 25.2598 122.381 24.2856 122.792 23.438C123.202 22.5835 123.783 21.9102 124.535 21.418C125.259 20.9395 126.127 20.7002 127.139 20.7002H127.18C128.185 20.7002 129.029 20.8984 129.713 21.2949C131.107 22.1016 131.805 23.5747 131.805 25.7144V27.3447H125.283L125.263 27.4062C125.304 27.8848 125.427 28.3154 125.632 28.6982C125.83 29.0742 126.114 29.3716 126.483 29.5903C126.852 29.8091 127.3 29.9185 127.826 29.9185C128.373 29.9185 128.882 29.8501 129.354 29.7134C129.833 29.5698 130.297 29.3613 130.749 29.0879L131.559 30.9336C131.101 31.3027 130.523 31.6104 129.826 31.8564C129.135 32.0957 128.342 32.2153 127.447 32.2153ZM125.273 25.3145L125.304 25.3657H129.005V25.0991C129.005 24.6548 128.947 24.2651 128.831 23.9302C128.571 23.2534 128.038 22.915 127.231 22.915C126.842 22.915 126.507 23.0176 126.227 23.2227C125.953 23.4346 125.738 23.7217 125.581 24.084C125.43 24.4463 125.328 24.8564 125.273 25.3145ZM137.465 16.0039V29.8979L138.911 30.2056V32H133.025V30.2056L134.471 29.8979V18.1162L132.871 17.8086V16.0039H137.465ZM144.253 34.1533L145.699 34.4609V36.2656H139.823V34.4609L141.269 34.1533V23.0176L139.669 22.71V20.9053H144.017L144.161 22.1973C144.489 21.7188 144.885 21.3496 145.35 21.0898C145.815 20.8301 146.369 20.7002 147.011 20.7002C147.9 20.7002 148.666 20.9429 149.308 21.4282C150.621 22.4468 151.277 24.1523 151.277 26.5449V26.7603C151.277 27.8677 151.109 28.8213 150.774 29.6211C150.439 30.4414 149.951 31.0806 149.308 31.5386C148.666 31.9897 147.893 32.2153 146.991 32.2153C145.822 32.2153 144.909 31.7915 144.253 30.9438V34.1533ZM146.099 29.9185C146.864 29.9185 147.418 29.6348 147.76 29.0674C148.108 28.5 148.283 27.731 148.283 26.7603V26.5449C148.283 25.8477 148.204 25.2324 148.047 24.6992C147.89 24.1729 147.647 23.7627 147.319 23.4688C146.998 23.1748 146.584 23.0278 146.078 23.0278C145.244 23.0278 144.636 23.3833 144.253 24.0942V28.9546C144.629 29.5972 145.244 29.9185 146.099 29.9185ZM157.921 32.2153C156.862 32.2153 155.936 31.9795 155.143 31.5078C154.35 31.043 153.734 30.4004 153.297 29.5801C152.866 28.7598 152.651 27.8232 152.651 26.7705V26.3604C152.651 25.2598 152.856 24.2856 153.266 23.438C153.676 22.5835 154.257 21.9102 155.009 21.418C155.734 20.9395 156.602 20.7002 157.614 20.7002H157.655C158.66 20.7002 159.504 20.8984 160.188 21.2949C161.582 22.1016 162.279 23.5747 162.279 25.7144V27.3447H155.758L155.737 27.4062C155.778 27.8848 155.901 28.3154 156.106 28.6982C156.305 29.0742 156.588 29.3716 156.958 29.5903C157.327 29.8091 157.774 29.9185 158.301 29.9185C158.848 29.9185 159.357 29.8501 159.829 29.7134C160.307 29.5698 160.772 29.3613 161.223 29.0879L162.033 30.9336C161.575 31.3027 160.998 31.6104 160.3 31.8564C159.61 32.0957 158.817 32.2153 157.921 32.2153ZM155.748 25.3145L155.778 25.3657H159.48V25.0991C159.48 24.6548 159.422 24.2651 159.306 23.9302C159.046 23.2534 158.513 22.915 157.706 22.915C157.316 22.915 156.981 23.0176 156.701 23.2227C156.428 23.4346 156.212 23.7217 156.055 24.084C155.905 24.4463 155.802 24.8564 155.748 25.3145ZM168.319 29.8979L169.754 30.2056V32H163.889V30.2056L165.325 29.8979V23.0176L163.735 22.71V20.9053H168.114L168.227 22.2793L168.247 22.5254C168.801 21.3086 169.621 20.7002 170.708 20.7002C170.886 20.7002 171.081 20.7173 171.292 20.7515C171.504 20.7788 171.692 20.8164 171.856 20.8643L171.539 23.6226L170.052 23.5405H169.908C169.56 23.5405 169.266 23.6123 169.026 23.7559C168.76 23.9199 168.524 24.1558 168.319 24.4634V29.8979ZM180.603 32V29.375H183.587V32H180.603Z" fill="black"/>
</svg>
